<?xml version="1.0" encoding="UTF-8"?>
<svg id="Layer_2" data-name="Layer 2" xmlns="http://www.w3.org/2000/svg" viewBox="0 0 306.06 262.74">
  <defs>
    <style>
      .cls-1 {
        fill: #e7f4f0;
      }

      .cls-2 {
        fill: none;
        stroke: #a8d3ca;
        stroke-miterlimit: 10;
        stroke-width: 8px;
      }

      .cls-3 {
        fill: #ff9388;
      }
    </style>
  </defs>
  <g id="Layer_1-2" data-name="Layer 1">
    <g>
      <g>
        <path class="cls-1" d="M40.32,258.74c-1.92,0-4.51-.52-5.88-3.01-1.47-2.66-1.15-6.38.81-9.47,4.42-6.97,6.92-14.41,7.43-22.09.47-7.04-1.92-13.98-6.64-19.23C12.93,179.19,1.69,147.64,4.4,116.1,9.88,52.19,70.9,4,146.34,4c5.75,0,11.59.29,17.36.86,40.06,3.94,76.5,20.97,102.62,47.95,25.66,26.51,38.21,59.47,35.35,92.81-5.48,63.91-66.5,112.1-141.93,112.1-5.76,0-11.6-.29-17.37-.86-14.7-1.44-29.06-4.69-42.69-9.64-2.89-1.05-5.92-1.57-8.94-1.57-3.5,0-6.99.7-10.27,2.1-10.02,4.27-26.21,9.7-38.89,10.94-.43.04-.86.06-1.26.06Z"/>
        <path class="cls-1" d="M40.32,258.74c-1.92,0-4.51-.52-5.88-3.01-1.47-2.66-1.15-6.38.81-9.47,4.42-6.97,6.92-14.41,7.43-22.09.47-7.04-1.92-13.98-6.64-19.23C12.93,179.19,1.69,147.64,4.4,116.1,9.88,52.19,70.9,4,146.34,4c5.75,0,11.59.29,17.36.86,40.06,3.94,76.5,20.97,102.62,47.95,25.66,26.51,38.21,59.47,35.35,92.81-5.48,63.91-66.5,112.1-141.93,112.1-5.76,0-11.6-.29-17.37-.86-14.7-1.44-29.06-4.69-42.69-9.64-2.89-1.05-5.92-1.57-8.94-1.57-3.5,0-6.99.7-10.27,2.1-10.02,4.27-26.21,9.7-38.89,10.94-.43.04-.86.06-1.26.06Z"/>
      </g>
      <g>
        <path class="cls-2" d="M40.32,258.74c-1.92,0-4.51-.52-5.88-3.01-1.47-2.66-1.15-6.38.81-9.47,4.42-6.97,6.92-14.41,7.43-22.09.47-7.04-1.92-13.98-6.64-19.23C12.93,179.19,1.69,147.64,4.4,116.1,9.88,52.19,70.9,4,146.34,4c5.75,0,11.59.29,17.36.86,40.06,3.94,76.5,20.97,102.62,47.95,25.66,26.51,38.21,59.47,35.35,92.81-5.48,63.91-66.5,112.1-141.93,112.1-5.76,0-11.6-.29-17.37-.86-14.7-1.44-29.06-4.69-42.69-9.64-2.89-1.05-5.92-1.57-8.94-1.57-3.5,0-6.99.7-10.27,2.1-10.02,4.27-26.21,9.7-38.89,10.94-.43.04-.86.06-1.26.06Z"/>
        <path class="cls-2" d="M40.32,258.74c-1.92,0-4.51-.52-5.88-3.01-1.47-2.66-1.15-6.38.81-9.47,4.42-6.97,6.92-14.41,7.43-22.09.47-7.04-1.92-13.98-6.64-19.23C12.93,179.19,1.69,147.64,4.4,116.1,9.88,52.19,70.9,4,146.34,4c5.75,0,11.59.29,17.36.86,40.06,3.94,76.5,20.97,102.62,47.95,25.66,26.51,38.21,59.47,35.35,92.81-5.48,63.91-66.5,112.1-141.93,112.1-5.76,0-11.6-.29-17.37-.86-14.7-1.44-29.06-4.69-42.69-9.64-2.89-1.05-5.92-1.57-8.94-1.57-3.5,0-6.99.7-10.27,2.1-10.02,4.27-26.21,9.7-38.89,10.94-.43.04-.86.06-1.26.06Z"/>
      </g>
    </g>
    <g id="_2jFEs2.tif" data-name="2jFEs2.tif">
      <path class="cls-3" d="M203.34,138.41c-9.86,17.35-32.2,34.16-49.63,43.53-2.39,1.28-5.29,1.03-7.63-.26-5.76-3.17-11.04-6.63-16.49-10.39-8.8-6.08-16.75-12.92-23.9-20.85-8.49-9.42-14.52-20.53-13.67-33.49s6.61-25.65,19.74-30.75c11.67-4.53,24.9-3.54,34.38,4.96l4.38,3.93c5.32-6.31,12.25-10.33,20.42-11.29,3.67-.43,7.12-.52,10.8.02,9.19,1.36,16.99,6.7,21.67,14.72,7.18,12.32,6.97,27.44-.08,39.85Z"/>
    </g>
  </g>
</svg>